<svg class="w-16 h-16 md:w-20 md:h-20 hover:scale-105 transition-all" viewBox="0 0 80 80" xmlns="http://www.w3.org/2000/svg"><rect x="0.3" width="72" height="72" rx="40" style="fill: var(--card_background_color);"></rect><path fill="white" d="M28.3716 48.5005C27.9111 48.4997 27.4588 48.379 27.0591 48.1503C26.1591 47.6403 25.5996 46.6503 25.5996 45.5755V23.8255C25.5996 22.7478 26.1591 21.7608 27.0591 21.2508C27.4683 21.0156 27.9332 20.8947 28.4051 20.9006C28.877 20.9065 29.3387 21.0391 29.7419 21.2845L48.3306 32.4115C48.718 32.6544 49.0374 32.9918 49.2588 33.3919C49.4801 33.792 49.5963 34.2418 49.5963 34.699C49.5963 35.1563 49.4801 35.6061 49.2588 36.0062C49.0374 36.4063 48.718 36.7436 48.3306 36.9865L29.7389 48.1165C29.3263 48.366 28.8537 48.4987 28.3716 48.5005Z"></path></svg>